PathFileType	4	(x/y/z)	S05_P20_T08
DataRate	CameraRate	NumFrames	NumMarkers	Units	OrigDataRate	OrigDataStartFrame	OrigNumFrames
240	240	4	50	mm	240	97	386
Frame#	Time	Sternum			R.Acromium			L.Acromium			Top.Head			R.ASIS			L.ASIS			R.PSIS			L.PSIS			R.Great.Tro			L.Great.Tro			R.Iliac.Crest			L.Iliac.Crest			V.Sacral			R.Thigh.Upper.Post			R.Thigh.Lower.Ant			R.Thigh.Lower.Post			R.Thigh.Upper.Ant			R.Knee.Lat			R.Knee.Med			R.Shank.Upper.Post			R.Shank.Lower.Ant			R.Shank.Lower.Post			R.Shank.Upper.Ant			R.Ankle.Lat			R.Ankle.Med			R.Heel.Upper			R.Heel.Med			R.Heel.Lat			R.Toe.Lat			R.Toe.Med			R.Toe.Tip			L.Thigh.Upper.Post			L.Thigh.Lower.Ant			L.Thigh.Lower.Post			L.Thigh.Upper.Ant			L.Knee.Lat			L.Shank.Upper.Post			L.Shank.Lower.Ant			L.Shank.Lower.Post			L.Shank.Upper.Ant			L.Ankle.Lat			L.Ankle.Med			L.Heel.Upper			L.Heel.Med			L.Heel.Lat			L.Toe.Lat			L.Toe.Med			L.Toe.Tip			Cervical.Spine			Back			
		X1	Y1	Z1	X2	Y2	Z2	X3	Y3	Z3	X4	Y4	Z4	X5	Y5	Z5	X6	Y6	Z6	X7	Y7	Z7	X8	Y8	Z8	X9	Y9	Z9	X10	Y10	Z10	X11	Y11	Z11	X12	Y12	Z12	X13	Y13	Z13	X14	Y14	Z14	X15	Y15	Z15	X16	Y16	Z16	X17	Y17	Z17	X18	Y18	Z18	X19	Y19	Z19	X20	Y20	Z20	X21	Y21	Z21	X22	Y22	Z22	X23	Y23	Z23	X24	Y24	Z24	X25	Y25	Z25	X26	Y26	Z26	X27	Y27	Z27	X28	Y28	Z28	X29	Y29	Z29	X30	Y30	Z30	X31	Y31	Z31	X32	Y32	Z32	X33	Y33	Z33	X34	Y34	Z34	X35	Y35	Z35	X36	Y36	Z36	X37	Y37	Z37	X38	Y38	Z38	X39	Y39	Z39	X40	Y40	Z40	X41	Y41	Z41	X42	Y42	Z42	X43	Y43	Z43	X44	Y44	Z44	X45	Y45	Z45	X46	Y46	Z46	X47	Y47	Z47	X48	Y48	Z48	X49	Y49	Z49	X50	Y50	Z50	

97	0.4	-874.43	1266.3	313.2	-965.48	1527.4	466.09	-966.9	1541.4	134.31	-965.87	1836.7	290.05	-949.92	1017.5	436.68	NaN	NaN	NaN	-1150.9	1038.4	349	NaN	NaN	NaN	-1026.7	937.47	502.07	-1039.8	944.26	113.76	-1039.4	1102.5	475.64	-1030.9	1099.2	141.2	-1162.3	1006.7	315.8	-907	731.45	495.97	-840.2	678.26	439.54	-893.99	644.05	474.98	-857.96	764.17	459.61	-875.45	551.35	453.19	-861.93	541	320.48	-899.02	302.36	434.42	-824.72	253.86	444.3	-879.03	229.41	418.88	-843.56	328.32	457.59	-809.98	146.64	426.86	-794.18	176.85	343.04	-850.18	75.913	354.52	-823.22	52.432	329.26	-839.4	49.68	391.85	-694.5	89.351	475.92	-645.5	115.83	370.77	-602.14	155.67	424.38	-1065.3	708.63	125.56	-994.31	627.06	151.42	-1065.9	614.62	144.41	-986.14	715.93	131.37	-1069.4	520.34	154.64	-1164.8	329.75	160.7	-1105	263.05	165.26	-1176.6	260	180.49	-1097.5	332.05	150.85	-1165.9	118.12	192.11	-1130.7	131.66	278.15	-1228.9	72.715	247.87	-1216.6	45.573	278.37	-1229.8	47.179	217.66	-1051.3	39.875	150.37	-1020.1	46.488	268.73	-959.35	54.755	210.15	-1017.3	1575	305.44	-1140.9	1302.1	301.97
98	0.40417	-868.85	1265.5	313.22	-959.94	1526.5	466.32	-961.31	1540.8	134.57	-960.43	1835.9	290.61	-944.06	1016.5	436.6	NaN	NaN	NaN	-1145.7	1037.7	349.35	NaN	NaN	NaN	-1020.9	936.4	501.99	-1034.7	943.78	113.8	-1033.2	1101.6	475.72	-1025.5	1098.5	141.31	-1156.6	1006.1	316.14	-902.39	729.77	495.84	-836.25	676.18	438.87	-889.89	642.24	474.78	-853.52	762.19	458.94	-870.9	550	452.67	-857.98	539.3	319.65	-888.96	300.53	435.22	-813.37	253.9	445.02	-867.26	227.96	419.83	-833.93	327.99	458.08	-795.85	146.68	427.94	-781.15	176.99	343.99	-834.58	74.555	356.05	-807.05	51.637	330.77	-822.98	48.735	393.46	-678.59	92.344	476.75	-630.69	119.87	371.21	-588.16	160.85	424.62	-1061.4	708.35	125.51	-990.99	626.4	151.42	-1062.6	614.36	144.42	-982.36	715.19	131.23	-1066.9	520.04	154.68	-1163.3	329.96	160.87	-1103.9	262.93	165.35	-1175.6	260.28	180.7	-1096.1	331.87	150.92	-1165.6	118.28	192.33	-1130.2	131.67	278.37	-1228.8	72.873	248.2	-1216.5	45.658	278.64	-1229.7	47.362	217.94	-1051.3	39.901	150.4	-1020	46.333	268.76	-959.24	54.509	210.15	-1011.8	1574.2	305.69	-1135.1	1301.3	302.08
99	0.40833	-863.26	1264.6	313.25	-954.4	1525.5	466.58	-955.73	1540	134.85	-954.98	1835	291.19	-938.19	1015.5	436.52	NaN	NaN	NaN	-1140.2	1036.9	349.7	NaN	NaN	NaN	-1015.1	935.29	501.92	-1029.6	943.27	113.83	-1027	1100.5	475.8	-1020.2	1097.8	141.43	-1151	1005.4	316.48	-897.69	728.09	495.72	-832.21	674.12	438.22	-885.7	640.44	474.61	-849.01	760.24	458.3	-866.28	548.65	452.21	-853.95	537.6	318.88	-879.11	298.83	436.01	-802.32	254.02	445.75	-855.8	226.66	420.77	-824.52	327.71	458.58	-782.16	146.83	428.98	-768.54	177.21	344.92	-819.49	73.399	357.54	-791.44	51.028	332.25	-807.1	47.993	395.03	-663.25	95.354	477.53	-616.39	123.9	371.53	-574.73	165.91	424.8	-1057.6	708.03	125.46	-987.61	625.72	151.41	-1059.2	614.07	144.44	-978.53	714.42	131.1	-1064.2	519.71	154.72	-1161.8	330.17	161.04	-1102.8	262.8	165.44	-1174.6	260.54	180.91	-1094.6	331.67	150.98	-1165.3	118.45	192.54	-1129.8	131.68	278.59	-1228.7	73.037	248.53	-1216.3	45.752	278.91	-1229.6	47.551	218.22	-1051.3	39.926	150.43	-1019.8	46.18	268.8	-959.13	54.265	210.14	-1006.2	1573.3	305.96	-1129.3	1300.3	302.21
100	0.4125	-857.67	1263.7	313.28	-948.84	1524.4	466.86	-950.15	1539.3	135.16	-949.53	1834.1	291.78	-932.33	1014.5	436.45	NaN	NaN	NaN	-1134.7	1036.1	350.07	NaN	NaN	NaN	-1009.2	934.14	501.86	-1024.5	942.71	113.86	-1020.7	1099.4	475.89	-1014.8	1097.1	141.55	-1145.3	1004.6	316.83	-892.89	726.44	495.61	-828.05	672.12	437.6	-881.38	638.68	474.48	-844.43	758.33	457.68	-861.57	547.3	451.8	-849.83	535.92	318.15	-869.5	297.27	436.77	-791.61	254.18	446.47	-844.67	225.5	421.67	-815.35	327.47	459.06	-768.95	147.08	429.98	-756.36	177.5	345.81	-804.93	72.42	358.98	-776.43	50.575	333.66	-791.81	47.422	396.55	-648.51	98.327	478.25	-602.62	127.86	371.73	-561.85	170.79	424.92	-1053.6	707.69	125.4	-984.17	625.02	151.41	-1055.8	613.75	144.45	-974.65	713.63	130.96	-1061.5	519.36	154.76	-1160.3	330.37	161.2	-1101.7	262.66	165.54	-1173.5	260.81	181.13	-1093.1	331.45	151.05	-1165	118.62	192.75	-1129.3	131.69	278.82	-1228.6	73.212	248.86	-1216.1	45.858	279.18	-1229.5	47.749	218.51	-1051.3	39.949	150.47	-1019.7	46.032	268.83	-959.02	54.022	210.13	-1000.6	1572.4	306.25	-1123.5	1299.4	302.35
